<svg width="33" height="33" viewBox="0 0 33 33" fill="none" xmlns="http://www.w3.org/2000/svg">
<path d="M32.0464 29.8326L21.6121 19.3982C23.2313 17.3049 24.1071 14.7455 24.1071 12.0536C24.1071 8.83125 22.8496 5.80982 20.5754 3.5317C18.3013 1.25357 15.2719 0 12.0536 0C8.83527 0 5.8058 1.25759 3.5317 3.5317C1.25357 5.8058 0 8.83125 0 12.0536C0 15.2719 1.25759 18.3013 3.5317 20.5754C5.8058 22.8536 8.83125 24.1071 12.0536 24.1071C14.7455 24.1071 17.3009 23.2312 19.3942 21.6161L29.8286 32.0464C29.8592 32.077 29.8955 32.1013 29.9355 32.1179C29.9755 32.1345 30.0183 32.143 30.0616 32.143C30.1049 32.143 30.1477 32.1345 30.1877 32.1179C30.2277 32.1013 30.264 32.077 30.2946 32.0464L32.0464 30.2987C32.077 30.2681 32.1013 30.2317 32.1179 30.1918C32.1345 30.1518 32.143 30.1089 32.143 30.0656C32.143 30.0223 32.1345 29.9795 32.1179 29.9395C32.1013 29.8995 32.077 29.8632 32.0464 29.8326V29.8326ZM18.4179 18.4179C16.7143 20.1174 14.4562 21.0536 12.0536 21.0536C9.65089 21.0536 7.39286 20.1174 5.68929 18.4179C3.98973 16.7143 3.05357 14.4562 3.05357 12.0536C3.05357 9.65089 3.98973 7.38884 5.68929 5.68929C7.39286 3.98973 9.65089 3.05357 12.0536 3.05357C14.4562 3.05357 16.7183 3.98571 18.4179 5.68929C20.1174 7.39286 21.0536 9.65089 21.0536 12.0536C21.0536 14.4562 20.1174 16.7183 18.4179 18.4179Z" fill="black"/>
</svg>
