<svg width="36" height="36" viewBox="0 0 36 36" fill="none" xmlns="http://www.w3.org/2000/svg">
<path d="M28.1245 8.71596C27.562 7.48649 26.7625 6.38158 25.7419 5.43739C23.6687 3.51283 20.9165 2.45212 17.9995 2.45212C15.0826 2.45212 12.3303 3.51283 10.2571 5.43337C9.23658 6.38158 8.43703 7.48248 7.87453 8.71596C7.28792 10.0017 6.9906 11.3637 6.9906 12.77V13.8548C6.9906 14.1039 7.19149 14.3048 7.4406 14.3048H9.61024C9.85935 14.3048 10.0602 14.1039 10.0602 13.8548V12.77C10.0602 8.77221 13.6201 5.52176 17.9995 5.52176C22.379 5.52176 25.9388 8.77221 25.9388 12.77C25.9388 14.4093 25.3562 15.9521 24.2513 17.2378C23.1585 18.5115 21.6156 19.4235 19.908 19.8093C18.9317 20.0302 18.0518 20.5807 17.429 21.3682C16.8084 22.153 16.4701 23.1239 16.4687 24.1244V25.386C16.4687 25.6352 16.6696 25.836 16.9187 25.836H19.0884C19.3375 25.836 19.5384 25.6352 19.5384 25.386V24.1244C19.5384 23.4936 19.9763 22.9392 20.583 22.8026C22.9294 22.2722 25.0589 21.0066 26.5817 19.2387C27.3491 18.3427 27.9477 17.3463 28.3616 16.2655C28.7915 15.1445 29.0085 13.9673 29.0085 12.77C29.0085 11.3637 28.7111 9.99765 28.1245 8.71596V8.71596ZM17.9995 29.0503C16.758 29.0503 15.7495 30.0588 15.7495 31.3003C15.7495 32.5419 16.758 33.5503 17.9995 33.5503C19.241 33.5503 20.2495 32.5419 20.2495 31.3003C20.2495 30.0588 19.241 29.0503 17.9995 29.0503Z" fill="black"/>
</svg>
