<svg width="50" height="50" viewBox="0 0 50 50" fill="none" xmlns="http://www.w3.org/2000/svg">
<path fill-rule="evenodd" clip-rule="evenodd" d="M41.7556 8.38405C42.739 9.49036 42.739 11.284 41.7556 12.3903L39.2375 15.2232C38.2541 16.3295 36.6597 16.3295 35.6763 15.2232C34.6929 14.1169 34.6929 12.3232 35.6763 11.2169L38.1944 8.38405C39.1778 7.27774 40.7722 7.27774 41.7556 8.38405Z" fill="black"/>
<path fill-rule="evenodd" clip-rule="evenodd" d="M48.8465 25.0001C48.8465 26.5379 47.5999 27.7845 46.0621 27.7845H42.1243C40.5865 27.7845 39.3399 26.5379 39.3399 25.0001C39.3399 23.4623 40.5865 22.2156 42.1243 22.2156H46.0621C47.5999 22.2156 48.8465 23.4623 48.8465 25.0001Z" fill="black"/>
<path fill-rule="evenodd" clip-rule="evenodd" d="M10.6601 25.0001C10.6601 26.5379 9.41343 27.7845 7.87563 27.7845H3.93785C2.40005 27.7845 1.15342 26.5379 1.15342 25.0001C1.15342 23.4623 2.40005 22.2156 3.93785 22.2156H7.87563C9.41343 22.2156 10.6601 23.4623 10.6601 25.0001Z" fill="black"/>
<path fill-rule="evenodd" clip-rule="evenodd" d="M25 48.8466C23.4622 48.8466 22.2156 47.6 22.2156 46.0622L22.2156 42.1244C22.2156 40.5866 23.4622 39.3399 25 39.3399C26.5378 39.3399 27.7844 40.5866 27.7844 42.1244L27.7844 46.0622C27.7844 47.6 26.5378 48.8466 25 48.8466Z" fill="black"/>
<path fill-rule="evenodd" clip-rule="evenodd" d="M25 10.6601C23.4622 10.6601 22.2156 9.41343 22.2156 7.87563L22.2156 3.93785C22.2156 2.40005 23.4622 1.15341 25 1.15342C26.5378 1.15342 27.7844 2.40005 27.7844 3.93785L27.7844 7.87563C27.7844 9.41343 26.5378 10.6601 25 10.6601Z" fill="black"/>
<path fill-rule="evenodd" clip-rule="evenodd" d="M9.32836 41.7556C8.22205 40.7722 8.22205 39.1779 9.32836 38.1945L12.1612 35.6764C13.2675 34.693 15.0612 34.693 16.1675 35.6764C17.2738 36.6598 17.2738 38.2541 16.1675 39.2375L13.3346 41.7556C12.2283 42.739 10.4347 42.739 9.32836 41.7556Z" fill="black"/>
<path fill-rule="evenodd" clip-rule="evenodd" d="M16.1675 15.2232C15.0612 16.3295 13.2675 16.3295 12.1612 15.2232L9.32836 12.3903C8.22205 11.284 8.22205 9.49036 9.32836 8.38405C10.4347 7.27774 12.2283 7.27774 13.3346 8.38405L16.1675 11.2169C17.2738 12.3232 17.2738 14.1169 16.1675 15.2232Z" fill="black"/>
<path fill-rule="evenodd" clip-rule="evenodd" d="M35.6763 35.6764C36.6597 34.693 38.2541 34.693 39.2375 35.6764L41.7556 38.1945C42.739 39.1779 42.739 40.7722 41.7556 41.7556C40.7722 42.739 39.1778 42.739 38.1944 41.7556L35.6763 39.2375C34.6929 38.2541 34.6929 36.6598 35.6763 35.6764Z" fill="black"/>
<path fill-rule="evenodd" clip-rule="evenodd" d="M18.033 25.0237C18.033 28.8846 21.1628 32.0145 25.0238 32.0145C28.8847 32.0145 32.0146 28.8846 32.0146 25.0237C32.0146 21.1628 28.8847 18.0329 25.0238 18.0329C21.1628 18.0329 18.033 21.1628 18.033 25.0237ZM25.0238 12.2758C17.9833 12.2758 12.2758 17.9832 12.2758 25.0237C12.2758 32.0642 17.9833 37.7716 25.0238 37.7716C32.0642 37.7716 37.7717 32.0642 37.7717 25.0237C37.7717 17.9832 32.0642 12.2758 25.0238 12.2758Z" fill="black"/>
</svg>
